<mxfile host="65bd71144e">
    <diagram id="3VsCVZED8jjAuXlEe1rD" name="第 1 页">
        <mxGraphModel dx="986" dy="421" grid="1" gridSize="10" guides="1" tooltips="1" connect="1" arrows="1" fold="1" page="1" pageScale="1" pageWidth="1654" pageHeight="1169" math="0" shadow="0">
            <root>
                <mxCell id="0"/>
                <mxCell id="1" parent="0"/>
                <mxCell id="2" value="3" style="ellipse;whiteSpace=wrap;html=1;aspect=fixed;fillColor=#66B2FF;" vertex="1" parent="1">
                    <mxGeometry x="385" y="10" width="30" height="30" as="geometry"/>
                </mxCell>
                <mxCell id="3" value="9" style="ellipse;whiteSpace=wrap;html=1;aspect=fixed;fillColor=#66B2FF;" vertex="1" parent="1">
                    <mxGeometry x="335" y="50" width="30" height="30" as="geometry"/>
                </mxCell>
                <mxCell id="4" value="6" style="ellipse;whiteSpace=wrap;html=1;aspect=fixed;fillColor=#66B2FF;" vertex="1" parent="1">
                    <mxGeometry x="295" y="100" width="30" height="30" as="geometry"/>
                </mxCell>
                <mxCell id="5" value="1" style="ellipse;whiteSpace=wrap;html=1;aspect=fixed;fillColor=#66B2FF;" vertex="1" parent="1">
                    <mxGeometry x="445" y="50" width="30" height="30" as="geometry"/>
                </mxCell>
                <mxCell id="7" value="7" style="ellipse;whiteSpace=wrap;html=1;aspect=fixed;fillColor=#66B2FF;" vertex="1" parent="1">
                    <mxGeometry x="365" y="100" width="30" height="30" as="geometry"/>
                </mxCell>
                <mxCell id="8" value="1" style="ellipse;whiteSpace=wrap;html=1;aspect=fixed;fillColor=#66B2FF;" vertex="1" parent="1">
                    <mxGeometry x="415" y="100" width="30" height="30" as="geometry"/>
                </mxCell>
                <mxCell id="9" value="9" style="ellipse;whiteSpace=wrap;html=1;aspect=fixed;fillColor=#66B2FF;" vertex="1" parent="1">
                    <mxGeometry x="485" y="100" width="30" height="30" as="geometry"/>
                </mxCell>
                <mxCell id="10" value="5" style="ellipse;whiteSpace=wrap;html=1;aspect=fixed;fillColor=#66B2FF;" vertex="1" parent="1">
                    <mxGeometry x="265" y="150" width="30" height="30" as="geometry"/>
                </mxCell>
                <mxCell id="14" value="" style="endArrow=none;html=1;exitX=1;exitY=0;exitDx=0;exitDy=0;entryX=0;entryY=1;entryDx=0;entryDy=0;" edge="1" parent="1" source="3" target="2">
                    <mxGeometry width="50" height="50" relative="1" as="geometry">
                        <mxPoint x="355" y="70" as="sourcePoint"/>
                        <mxPoint x="385" y="40" as="targetPoint"/>
                    </mxGeometry>
                </mxCell>
                <mxCell id="16" value="" style="endArrow=none;html=1;exitX=1;exitY=0;exitDx=0;exitDy=0;entryX=0;entryY=1;entryDx=0;entryDy=0;" edge="1" parent="1" source="4" target="3">
                    <mxGeometry width="50" height="50" relative="1" as="geometry">
                        <mxPoint x="370.6066017177982" y="64.39339828220182" as="sourcePoint"/>
                        <mxPoint x="399.3933982822018" y="45.606601717798185" as="targetPoint"/>
                    </mxGeometry>
                </mxCell>
                <mxCell id="19" value="" style="endArrow=none;html=1;exitX=1;exitY=0;exitDx=0;exitDy=0;entryX=0;entryY=1;entryDx=0;entryDy=0;" edge="1" parent="1" source="10" target="4">
                    <mxGeometry width="50" height="50" relative="1" as="geometry">
                        <mxPoint x="330.6066017177982" y="114.39339828220182" as="sourcePoint"/>
                        <mxPoint x="349.3933982822018" y="85.60660171779818" as="targetPoint"/>
                    </mxGeometry>
                </mxCell>
                <mxCell id="20" value="" style="endArrow=none;html=1;exitX=0;exitY=0;exitDx=0;exitDy=0;entryX=1;entryY=1;entryDx=0;entryDy=0;" edge="1" parent="1" source="5" target="2">
                    <mxGeometry width="50" height="50" relative="1" as="geometry">
                        <mxPoint x="340.6066017177982" y="124.39339828220182" as="sourcePoint"/>
                        <mxPoint x="359.3933982822018" y="95.60660171779818" as="targetPoint"/>
                    </mxGeometry>
                </mxCell>
                <mxCell id="21" value="" style="endArrow=none;html=1;entryX=1;entryY=1;entryDx=0;entryDy=0;" edge="1" parent="1" target="5">
                    <mxGeometry width="50" height="50" relative="1" as="geometry">
                        <mxPoint x="492" y="98" as="sourcePoint"/>
                        <mxPoint x="369.3933982822018" y="105.60660171779818" as="targetPoint"/>
                    </mxGeometry>
                </mxCell>
                <mxCell id="22" value="" style="endArrow=none;html=1;exitX=1;exitY=1;exitDx=0;exitDy=0;entryX=0.5;entryY=0;entryDx=0;entryDy=0;" edge="1" parent="1" source="3" target="7">
                    <mxGeometry width="50" height="50" relative="1" as="geometry">
                        <mxPoint x="360.6066017177982" y="144.39339828220182" as="sourcePoint"/>
                        <mxPoint x="379.3933982822018" y="115.60660171779818" as="targetPoint"/>
                    </mxGeometry>
                </mxCell>
                <mxCell id="23" value="" style="endArrow=none;html=1;exitX=0.5;exitY=0;exitDx=0;exitDy=0;entryX=0;entryY=1;entryDx=0;entryDy=0;" edge="1" parent="1" source="8" target="5">
                    <mxGeometry width="50" height="50" relative="1" as="geometry">
                        <mxPoint x="370.6066017177982" y="154.39339828220182" as="sourcePoint"/>
                        <mxPoint x="389.3933982822018" y="125.60660171779818" as="targetPoint"/>
                    </mxGeometry>
                </mxCell>
                <mxCell id="27" value="0" style="text;html=1;align=center;verticalAlign=middle;resizable=0;points=[];autosize=1;strokeColor=none;fontColor=#FF3333;" vertex="1" parent="1">
                    <mxGeometry x="390" y="40" width="20" height="20" as="geometry"/>
                </mxCell>
                <mxCell id="28" value="1" style="text;html=1;align=center;verticalAlign=middle;resizable=0;points=[];autosize=1;strokeColor=none;fontColor=#FF3333;" vertex="1" parent="1">
                    <mxGeometry x="340" y="80" width="20" height="20" as="geometry"/>
                </mxCell>
                <mxCell id="29" value="4" style="text;html=1;align=center;verticalAlign=middle;resizable=0;points=[];autosize=1;strokeColor=none;fontColor=#FF3333;" vertex="1" parent="1">
                    <mxGeometry x="370" y="130" width="20" height="20" as="geometry"/>
                </mxCell>
                <mxCell id="30" value="3" style="text;html=1;align=center;verticalAlign=middle;resizable=0;points=[];autosize=1;strokeColor=none;fontColor=#FF3333;" vertex="1" parent="1">
                    <mxGeometry x="300" y="130" width="20" height="20" as="geometry"/>
                </mxCell>
                <mxCell id="31" value="7" style="text;html=1;align=center;verticalAlign=middle;resizable=0;points=[];autosize=1;strokeColor=none;fontColor=#FF3333;" vertex="1" parent="1">
                    <mxGeometry x="270" y="180" width="20" height="20" as="geometry"/>
                </mxCell>
                <mxCell id="32" value="5" style="text;html=1;align=center;verticalAlign=middle;resizable=0;points=[];autosize=1;strokeColor=none;fontColor=#FF3333;" vertex="1" parent="1">
                    <mxGeometry x="420" y="130" width="20" height="20" as="geometry"/>
                </mxCell>
                <mxCell id="33" value="6" style="text;html=1;align=center;verticalAlign=middle;resizable=0;points=[];autosize=1;strokeColor=none;fontColor=#FF3333;" vertex="1" parent="1">
                    <mxGeometry x="490" y="130" width="20" height="20" as="geometry"/>
                </mxCell>
                <mxCell id="34" value="2" style="text;html=1;align=center;verticalAlign=middle;resizable=0;points=[];autosize=1;strokeColor=none;fontColor=#FF3333;" vertex="1" parent="1">
                    <mxGeometry x="450" y="80" width="20" height="20" as="geometry"/>
                </mxCell>
                <mxCell id="35" value="完全二叉树&lt;br&gt;[3 9 1 6 7 1 9 5]" style="text;html=1;strokeColor=none;fillColor=none;align=center;verticalAlign=middle;whiteSpace=wrap;rounded=0;" vertex="1" parent="1">
                    <mxGeometry x="340" y="190" width="105" height="30" as="geometry"/>
                </mxCell>
                <mxCell id="36" value="9" style="ellipse;whiteSpace=wrap;html=1;aspect=fixed;fillColor=#66B2FF;" vertex="1" parent="1">
                    <mxGeometry x="155" y="250" width="30" height="30" as="geometry"/>
                </mxCell>
                <mxCell id="37" value="7" style="ellipse;whiteSpace=wrap;html=1;aspect=fixed;fillColor=#66B2FF;" vertex="1" parent="1">
                    <mxGeometry x="105" y="290" width="30" height="30" as="geometry"/>
                </mxCell>
                <mxCell id="38" value="5" style="ellipse;whiteSpace=wrap;html=1;aspect=fixed;fillColor=#66B2FF;" vertex="1" parent="1">
                    <mxGeometry x="65" y="340" width="30" height="30" as="geometry"/>
                </mxCell>
                <mxCell id="39" value="9" style="ellipse;whiteSpace=wrap;html=1;aspect=fixed;fillColor=#66B2FF;" vertex="1" parent="1">
                    <mxGeometry x="215" y="290" width="30" height="30" as="geometry"/>
                </mxCell>
                <mxCell id="40" value="6" style="ellipse;whiteSpace=wrap;html=1;aspect=fixed;fillColor=#66B2FF;" vertex="1" parent="1">
                    <mxGeometry x="135" y="340" width="30" height="30" as="geometry"/>
                </mxCell>
                <mxCell id="41" value="1" style="ellipse;whiteSpace=wrap;html=1;aspect=fixed;fillColor=#66B2FF;" vertex="1" parent="1">
                    <mxGeometry x="185" y="340" width="30" height="30" as="geometry"/>
                </mxCell>
                <mxCell id="42" value="1" style="ellipse;whiteSpace=wrap;html=1;aspect=fixed;fillColor=#66B2FF;" vertex="1" parent="1">
                    <mxGeometry x="255" y="340" width="30" height="30" as="geometry"/>
                </mxCell>
                <mxCell id="43" value="3" style="ellipse;whiteSpace=wrap;html=1;aspect=fixed;fillColor=#66B2FF;" vertex="1" parent="1">
                    <mxGeometry x="35" y="390" width="30" height="30" as="geometry"/>
                </mxCell>
                <mxCell id="44" value="" style="endArrow=none;html=1;exitX=1;exitY=0;exitDx=0;exitDy=0;entryX=0;entryY=1;entryDx=0;entryDy=0;" edge="1" source="37" target="36" parent="1">
                    <mxGeometry width="50" height="50" relative="1" as="geometry">
                        <mxPoint x="125" y="310" as="sourcePoint"/>
                        <mxPoint x="155" y="280" as="targetPoint"/>
                    </mxGeometry>
                </mxCell>
                <mxCell id="45" value="" style="endArrow=none;html=1;exitX=1;exitY=0;exitDx=0;exitDy=0;entryX=0;entryY=1;entryDx=0;entryDy=0;" edge="1" source="38" target="37" parent="1">
                    <mxGeometry width="50" height="50" relative="1" as="geometry">
                        <mxPoint x="140.60660171779818" y="304.3933982822018" as="sourcePoint"/>
                        <mxPoint x="169.39339828220182" y="285.6066017177982" as="targetPoint"/>
                    </mxGeometry>
                </mxCell>
                <mxCell id="46" value="" style="endArrow=none;html=1;exitX=1;exitY=0;exitDx=0;exitDy=0;entryX=0;entryY=1;entryDx=0;entryDy=0;" edge="1" source="43" target="38" parent="1">
                    <mxGeometry width="50" height="50" relative="1" as="geometry">
                        <mxPoint x="100.60660171779818" y="354.3933982822018" as="sourcePoint"/>
                        <mxPoint x="119.39339828220182" y="325.6066017177982" as="targetPoint"/>
                    </mxGeometry>
                </mxCell>
                <mxCell id="47" value="" style="endArrow=none;html=1;exitX=0;exitY=0;exitDx=0;exitDy=0;entryX=1;entryY=1;entryDx=0;entryDy=0;" edge="1" source="39" target="36" parent="1">
                    <mxGeometry width="50" height="50" relative="1" as="geometry">
                        <mxPoint x="110.60660171779818" y="364.3933982822018" as="sourcePoint"/>
                        <mxPoint x="129.39339828220182" y="335.6066017177982" as="targetPoint"/>
                    </mxGeometry>
                </mxCell>
                <mxCell id="48" value="" style="endArrow=none;html=1;entryX=1;entryY=1;entryDx=0;entryDy=0;" edge="1" target="39" parent="1">
                    <mxGeometry width="50" height="50" relative="1" as="geometry">
                        <mxPoint x="262" y="338" as="sourcePoint"/>
                        <mxPoint x="139.39339828220182" y="345.6066017177982" as="targetPoint"/>
                    </mxGeometry>
                </mxCell>
                <mxCell id="49" value="" style="endArrow=none;html=1;exitX=1;exitY=1;exitDx=0;exitDy=0;entryX=0.5;entryY=0;entryDx=0;entryDy=0;" edge="1" source="37" target="40" parent="1">
                    <mxGeometry width="50" height="50" relative="1" as="geometry">
                        <mxPoint x="130.60660171779818" y="384.3933982822018" as="sourcePoint"/>
                        <mxPoint x="149.39339828220182" y="355.6066017177982" as="targetPoint"/>
                    </mxGeometry>
                </mxCell>
                <mxCell id="50" value="" style="endArrow=none;html=1;exitX=0.5;exitY=0;exitDx=0;exitDy=0;entryX=0;entryY=1;entryDx=0;entryDy=0;" edge="1" source="41" target="39" parent="1">
                    <mxGeometry width="50" height="50" relative="1" as="geometry">
                        <mxPoint x="140.60660171779818" y="394.3933982822018" as="sourcePoint"/>
                        <mxPoint x="159.39339828220182" y="365.6066017177982" as="targetPoint"/>
                    </mxGeometry>
                </mxCell>
                <mxCell id="51" value="0" style="text;html=1;align=center;verticalAlign=middle;resizable=0;points=[];autosize=1;strokeColor=none;fontColor=#FF3333;" vertex="1" parent="1">
                    <mxGeometry x="160" y="280" width="20" height="20" as="geometry"/>
                </mxCell>
                <mxCell id="52" value="1" style="text;html=1;align=center;verticalAlign=middle;resizable=0;points=[];autosize=1;strokeColor=none;fontColor=#FF3333;" vertex="1" parent="1">
                    <mxGeometry x="110" y="320" width="20" height="20" as="geometry"/>
                </mxCell>
                <mxCell id="53" value="4" style="text;html=1;align=center;verticalAlign=middle;resizable=0;points=[];autosize=1;strokeColor=none;fontColor=#FF3333;" vertex="1" parent="1">
                    <mxGeometry x="140" y="370" width="20" height="20" as="geometry"/>
                </mxCell>
                <mxCell id="54" value="3" style="text;html=1;align=center;verticalAlign=middle;resizable=0;points=[];autosize=1;strokeColor=none;fontColor=#FF3333;" vertex="1" parent="1">
                    <mxGeometry x="70" y="370" width="20" height="20" as="geometry"/>
                </mxCell>
                <mxCell id="55" value="7" style="text;html=1;align=center;verticalAlign=middle;resizable=0;points=[];autosize=1;strokeColor=none;fontColor=#FF3333;" vertex="1" parent="1">
                    <mxGeometry x="40" y="420" width="20" height="20" as="geometry"/>
                </mxCell>
                <mxCell id="56" value="5" style="text;html=1;align=center;verticalAlign=middle;resizable=0;points=[];autosize=1;strokeColor=none;fontColor=#FF3333;" vertex="1" parent="1">
                    <mxGeometry x="190" y="370" width="20" height="20" as="geometry"/>
                </mxCell>
                <mxCell id="57" value="6" style="text;html=1;align=center;verticalAlign=middle;resizable=0;points=[];autosize=1;strokeColor=none;fontColor=#FF3333;" vertex="1" parent="1">
                    <mxGeometry x="260" y="370" width="20" height="20" as="geometry"/>
                </mxCell>
                <mxCell id="58" value="2" style="text;html=1;align=center;verticalAlign=middle;resizable=0;points=[];autosize=1;strokeColor=none;fontColor=#FF3333;" vertex="1" parent="1">
                    <mxGeometry x="220" y="320" width="20" height="20" as="geometry"/>
                </mxCell>
                <mxCell id="59" value="大根堆&lt;br&gt;[9 7 9 5 6 1 1 3]" style="text;html=1;strokeColor=none;fillColor=none;align=center;verticalAlign=middle;whiteSpace=wrap;rounded=0;" vertex="1" parent="1">
                    <mxGeometry x="90" y="435" width="135" height="30" as="geometry"/>
                </mxCell>
                <mxCell id="62" value="" style="endArrow=classic;html=1;fontColor=#000000;" edge="1" parent="1">
                    <mxGeometry width="50" height="50" relative="1" as="geometry">
                        <mxPoint x="260" y="220" as="sourcePoint"/>
                        <mxPoint x="220" y="260" as="targetPoint"/>
                    </mxGeometry>
                </mxCell>
                <mxCell id="63" value="1" style="ellipse;whiteSpace=wrap;html=1;aspect=fixed;fillColor=#66B2FF;" vertex="1" parent="1">
                    <mxGeometry x="590" y="270" width="30" height="30" as="geometry"/>
                </mxCell>
                <mxCell id="64" value="5" style="ellipse;whiteSpace=wrap;html=1;aspect=fixed;fillColor=#66B2FF;" vertex="1" parent="1">
                    <mxGeometry x="540" y="310" width="30" height="30" as="geometry"/>
                </mxCell>
                <mxCell id="65" value="6" style="ellipse;whiteSpace=wrap;html=1;aspect=fixed;fillColor=#66B2FF;" vertex="1" parent="1">
                    <mxGeometry x="501" y="360" width="30" height="30" as="geometry"/>
                </mxCell>
                <mxCell id="66" value="1" style="ellipse;whiteSpace=wrap;html=1;aspect=fixed;fillColor=#66B2FF;" vertex="1" parent="1">
                    <mxGeometry x="650" y="310" width="30" height="30" as="geometry"/>
                </mxCell>
                <mxCell id="67" value="7" style="ellipse;whiteSpace=wrap;html=1;aspect=fixed;fillColor=#66B2FF;" vertex="1" parent="1">
                    <mxGeometry x="570" y="360" width="30" height="30" as="geometry"/>
                </mxCell>
                <mxCell id="68" value="3" style="ellipse;whiteSpace=wrap;html=1;aspect=fixed;fillColor=#66B2FF;" vertex="1" parent="1">
                    <mxGeometry x="620" y="360" width="30" height="30" as="geometry"/>
                </mxCell>
                <mxCell id="69" value="9" style="ellipse;whiteSpace=wrap;html=1;aspect=fixed;fillColor=#66B2FF;" vertex="1" parent="1">
                    <mxGeometry x="690" y="360" width="30" height="30" as="geometry"/>
                </mxCell>
                <mxCell id="70" value="9" style="ellipse;whiteSpace=wrap;html=1;aspect=fixed;fillColor=#66B2FF;" vertex="1" parent="1">
                    <mxGeometry x="470" y="410" width="30" height="30" as="geometry"/>
                </mxCell>
                <mxCell id="71" value="" style="endArrow=none;html=1;exitX=1;exitY=0;exitDx=0;exitDy=0;entryX=0;entryY=1;entryDx=0;entryDy=0;" edge="1" source="64" target="63" parent="1">
                    <mxGeometry width="50" height="50" relative="1" as="geometry">
                        <mxPoint x="560" y="330" as="sourcePoint"/>
                        <mxPoint x="590" y="300" as="targetPoint"/>
                    </mxGeometry>
                </mxCell>
                <mxCell id="72" value="" style="endArrow=none;html=1;exitX=1;exitY=0;exitDx=0;exitDy=0;entryX=0;entryY=1;entryDx=0;entryDy=0;" edge="1" source="65" target="64" parent="1">
                    <mxGeometry width="50" height="50" relative="1" as="geometry">
                        <mxPoint x="575.6066017177982" y="324.3933982822018" as="sourcePoint"/>
                        <mxPoint x="604.3933982822018" y="305.6066017177982" as="targetPoint"/>
                    </mxGeometry>
                </mxCell>
                <mxCell id="73" value="" style="endArrow=none;html=1;exitX=1;exitY=0;exitDx=0;exitDy=0;entryX=0;entryY=1;entryDx=0;entryDy=0;" edge="1" source="70" target="65" parent="1">
                    <mxGeometry width="50" height="50" relative="1" as="geometry">
                        <mxPoint x="535.6066017177982" y="374.3933982822018" as="sourcePoint"/>
                        <mxPoint x="554.3933982822018" y="345.6066017177982" as="targetPoint"/>
                    </mxGeometry>
                </mxCell>
                <mxCell id="74" value="" style="endArrow=none;html=1;exitX=0;exitY=0;exitDx=0;exitDy=0;entryX=1;entryY=1;entryDx=0;entryDy=0;" edge="1" source="66" target="63" parent="1">
                    <mxGeometry width="50" height="50" relative="1" as="geometry">
                        <mxPoint x="545.6066017177982" y="384.3933982822018" as="sourcePoint"/>
                        <mxPoint x="564.3933982822018" y="355.6066017177982" as="targetPoint"/>
                    </mxGeometry>
                </mxCell>
                <mxCell id="75" value="" style="endArrow=none;html=1;entryX=1;entryY=1;entryDx=0;entryDy=0;" edge="1" target="66" parent="1">
                    <mxGeometry width="50" height="50" relative="1" as="geometry">
                        <mxPoint x="697" y="358" as="sourcePoint"/>
                        <mxPoint x="574.3933982822018" y="365.6066017177982" as="targetPoint"/>
                    </mxGeometry>
                </mxCell>
                <mxCell id="76" value="" style="endArrow=none;html=1;exitX=1;exitY=1;exitDx=0;exitDy=0;entryX=0.5;entryY=0;entryDx=0;entryDy=0;" edge="1" source="64" target="67" parent="1">
                    <mxGeometry width="50" height="50" relative="1" as="geometry">
                        <mxPoint x="565.6066017177982" y="404.3933982822018" as="sourcePoint"/>
                        <mxPoint x="584.3933982822018" y="375.6066017177982" as="targetPoint"/>
                    </mxGeometry>
                </mxCell>
                <mxCell id="77" value="" style="endArrow=none;html=1;exitX=0.5;exitY=0;exitDx=0;exitDy=0;entryX=0;entryY=1;entryDx=0;entryDy=0;" edge="1" source="68" target="66" parent="1">
                    <mxGeometry width="50" height="50" relative="1" as="geometry">
                        <mxPoint x="575.6066017177982" y="414.3933982822018" as="sourcePoint"/>
                        <mxPoint x="594.3933982822018" y="385.6066017177982" as="targetPoint"/>
                    </mxGeometry>
                </mxCell>
                <mxCell id="78" value="0" style="text;html=1;align=center;verticalAlign=middle;resizable=0;points=[];autosize=1;strokeColor=none;fontColor=#FF3333;" vertex="1" parent="1">
                    <mxGeometry x="595" y="300" width="20" height="20" as="geometry"/>
                </mxCell>
                <mxCell id="79" value="1" style="text;html=1;align=center;verticalAlign=middle;resizable=0;points=[];autosize=1;strokeColor=none;fontColor=#FF3333;" vertex="1" parent="1">
                    <mxGeometry x="545" y="340" width="20" height="20" as="geometry"/>
                </mxCell>
                <mxCell id="80" value="4" style="text;html=1;align=center;verticalAlign=middle;resizable=0;points=[];autosize=1;strokeColor=none;fontColor=#FF3333;" vertex="1" parent="1">
                    <mxGeometry x="575" y="390" width="20" height="20" as="geometry"/>
                </mxCell>
                <mxCell id="81" value="3" style="text;html=1;align=center;verticalAlign=middle;resizable=0;points=[];autosize=1;strokeColor=none;fontColor=#FF3333;" vertex="1" parent="1">
                    <mxGeometry x="505" y="390" width="20" height="20" as="geometry"/>
                </mxCell>
                <mxCell id="82" value="7" style="text;html=1;align=center;verticalAlign=middle;resizable=0;points=[];autosize=1;strokeColor=none;fontColor=#FF3333;" vertex="1" parent="1">
                    <mxGeometry x="475" y="440" width="20" height="20" as="geometry"/>
                </mxCell>
                <mxCell id="83" value="5" style="text;html=1;align=center;verticalAlign=middle;resizable=0;points=[];autosize=1;strokeColor=none;fontColor=#FF3333;" vertex="1" parent="1">
                    <mxGeometry x="625" y="390" width="20" height="20" as="geometry"/>
                </mxCell>
                <mxCell id="84" value="6" style="text;html=1;align=center;verticalAlign=middle;resizable=0;points=[];autosize=1;strokeColor=none;fontColor=#FF3333;" vertex="1" parent="1">
                    <mxGeometry x="695" y="390" width="20" height="20" as="geometry"/>
                </mxCell>
                <mxCell id="85" value="2" style="text;html=1;align=center;verticalAlign=middle;resizable=0;points=[];autosize=1;strokeColor=none;fontColor=#FF3333;" vertex="1" parent="1">
                    <mxGeometry x="655" y="340" width="20" height="20" as="geometry"/>
                </mxCell>
                <mxCell id="86" value="" style="endArrow=classic;html=1;fontColor=#000000;" edge="1" parent="1">
                    <mxGeometry width="50" height="50" relative="1" as="geometry">
                        <mxPoint x="520" y="210" as="sourcePoint"/>
                        <mxPoint x="570" y="260" as="targetPoint"/>
                    </mxGeometry>
                </mxCell>
                <mxCell id="87" value="小根堆&lt;br&gt;[1 6 1 5 7 3 9 9]" style="text;html=1;strokeColor=none;fillColor=none;align=center;verticalAlign=middle;whiteSpace=wrap;rounded=0;" vertex="1" parent="1">
                    <mxGeometry x="560" y="440" width="105" height="30" as="geometry"/>
                </mxCell>
                <mxCell id="88" value="自顶向下构建" style="text;html=1;strokeColor=none;fillColor=none;align=center;verticalAlign=middle;whiteSpace=wrap;rounded=0;fontColor=#000000;" vertex="1" parent="1">
                    <mxGeometry x="355" y="270" width="85" height="20" as="geometry"/>
                </mxCell>
                <mxCell id="238" value="3" style="ellipse;whiteSpace=wrap;html=1;aspect=fixed;fillColor=#66B2FF;" vertex="1" parent="1">
                    <mxGeometry x="1170" y="20" width="30" height="30" as="geometry"/>
                </mxCell>
                <mxCell id="239" value="9" style="ellipse;whiteSpace=wrap;html=1;aspect=fixed;fillColor=#66B2FF;" vertex="1" parent="1">
                    <mxGeometry x="1120" y="60" width="30" height="30" as="geometry"/>
                </mxCell>
                <mxCell id="240" value="6" style="ellipse;whiteSpace=wrap;html=1;aspect=fixed;fillColor=#66B2FF;" vertex="1" parent="1">
                    <mxGeometry x="1080" y="110" width="30" height="30" as="geometry"/>
                </mxCell>
                <mxCell id="241" value="1" style="ellipse;whiteSpace=wrap;html=1;aspect=fixed;fillColor=#66B2FF;" vertex="1" parent="1">
                    <mxGeometry x="1230" y="60" width="30" height="30" as="geometry"/>
                </mxCell>
                <mxCell id="242" value="7" style="ellipse;whiteSpace=wrap;html=1;aspect=fixed;fillColor=#66B2FF;" vertex="1" parent="1">
                    <mxGeometry x="1150" y="110" width="30" height="30" as="geometry"/>
                </mxCell>
                <mxCell id="243" value="1" style="ellipse;whiteSpace=wrap;html=1;aspect=fixed;fillColor=#66B2FF;" vertex="1" parent="1">
                    <mxGeometry x="1200" y="110" width="30" height="30" as="geometry"/>
                </mxCell>
                <mxCell id="244" value="9" style="ellipse;whiteSpace=wrap;html=1;aspect=fixed;fillColor=#66B2FF;" vertex="1" parent="1">
                    <mxGeometry x="1270" y="110" width="30" height="30" as="geometry"/>
                </mxCell>
                <mxCell id="245" value="5" style="ellipse;whiteSpace=wrap;html=1;aspect=fixed;fillColor=#66B2FF;" vertex="1" parent="1">
                    <mxGeometry x="1050" y="160" width="30" height="30" as="geometry"/>
                </mxCell>
                <mxCell id="246" value="" style="endArrow=none;html=1;exitX=1;exitY=0;exitDx=0;exitDy=0;entryX=0;entryY=1;entryDx=0;entryDy=0;" edge="1" source="239" target="238" parent="1">
                    <mxGeometry width="50" height="50" relative="1" as="geometry">
                        <mxPoint x="1140" y="80" as="sourcePoint"/>
                        <mxPoint x="1170" y="50" as="targetPoint"/>
                    </mxGeometry>
                </mxCell>
                <mxCell id="247" value="" style="endArrow=none;html=1;exitX=1;exitY=0;exitDx=0;exitDy=0;entryX=0;entryY=1;entryDx=0;entryDy=0;" edge="1" source="240" target="239" parent="1">
                    <mxGeometry width="50" height="50" relative="1" as="geometry">
                        <mxPoint x="1155.6066017177982" y="74.39339828220182" as="sourcePoint"/>
                        <mxPoint x="1184.3933982822018" y="55.606601717798185" as="targetPoint"/>
                    </mxGeometry>
                </mxCell>
                <mxCell id="248" value="" style="endArrow=none;html=1;exitX=1;exitY=0;exitDx=0;exitDy=0;entryX=0;entryY=1;entryDx=0;entryDy=0;" edge="1" source="245" target="240" parent="1">
                    <mxGeometry width="50" height="50" relative="1" as="geometry">
                        <mxPoint x="1115.6066017177982" y="124.39339828220182" as="sourcePoint"/>
                        <mxPoint x="1134.3933982822018" y="95.60660171779818" as="targetPoint"/>
                    </mxGeometry>
                </mxCell>
                <mxCell id="249" value="" style="endArrow=none;html=1;exitX=0;exitY=0;exitDx=0;exitDy=0;entryX=1;entryY=1;entryDx=0;entryDy=0;" edge="1" source="241" target="238" parent="1">
                    <mxGeometry width="50" height="50" relative="1" as="geometry">
                        <mxPoint x="1125.6066017177982" y="134.39339828220182" as="sourcePoint"/>
                        <mxPoint x="1144.3933982822018" y="105.60660171779818" as="targetPoint"/>
                    </mxGeometry>
                </mxCell>
                <mxCell id="250" value="" style="endArrow=none;html=1;entryX=1;entryY=1;entryDx=0;entryDy=0;" edge="1" target="241" parent="1">
                    <mxGeometry width="50" height="50" relative="1" as="geometry">
                        <mxPoint x="1277" y="108" as="sourcePoint"/>
                        <mxPoint x="1154.3933982822018" y="115.60660171779818" as="targetPoint"/>
                    </mxGeometry>
                </mxCell>
                <mxCell id="251" value="" style="endArrow=none;html=1;exitX=1;exitY=1;exitDx=0;exitDy=0;entryX=0.5;entryY=0;entryDx=0;entryDy=0;" edge="1" source="239" target="242" parent="1">
                    <mxGeometry width="50" height="50" relative="1" as="geometry">
                        <mxPoint x="1145.6066017177982" y="154.39339828220182" as="sourcePoint"/>
                        <mxPoint x="1164.3933982822018" y="125.60660171779818" as="targetPoint"/>
                    </mxGeometry>
                </mxCell>
                <mxCell id="252" value="" style="endArrow=none;html=1;exitX=0.5;exitY=0;exitDx=0;exitDy=0;entryX=0;entryY=1;entryDx=0;entryDy=0;" edge="1" source="243" target="241" parent="1">
                    <mxGeometry width="50" height="50" relative="1" as="geometry">
                        <mxPoint x="1155.6066017177982" y="164.39339828220182" as="sourcePoint"/>
                        <mxPoint x="1174.3933982822018" y="135.60660171779818" as="targetPoint"/>
                    </mxGeometry>
                </mxCell>
                <mxCell id="253" value="0" style="text;html=1;align=center;verticalAlign=middle;resizable=0;points=[];autosize=1;strokeColor=none;fontColor=#FF3333;" vertex="1" parent="1">
                    <mxGeometry x="1175" y="50" width="20" height="20" as="geometry"/>
                </mxCell>
                <mxCell id="254" value="1" style="text;html=1;align=center;verticalAlign=middle;resizable=0;points=[];autosize=1;strokeColor=none;fontColor=#FF3333;" vertex="1" parent="1">
                    <mxGeometry x="1125" y="90" width="20" height="20" as="geometry"/>
                </mxCell>
                <mxCell id="255" value="4" style="text;html=1;align=center;verticalAlign=middle;resizable=0;points=[];autosize=1;strokeColor=none;fontColor=#FF3333;" vertex="1" parent="1">
                    <mxGeometry x="1155" y="140" width="20" height="20" as="geometry"/>
                </mxCell>
                <mxCell id="256" value="3" style="text;html=1;align=center;verticalAlign=middle;resizable=0;points=[];autosize=1;strokeColor=none;fontColor=#FF3333;" vertex="1" parent="1">
                    <mxGeometry x="1085" y="140" width="20" height="20" as="geometry"/>
                </mxCell>
                <mxCell id="257" value="7" style="text;html=1;align=center;verticalAlign=middle;resizable=0;points=[];autosize=1;strokeColor=none;fontColor=#FF3333;" vertex="1" parent="1">
                    <mxGeometry x="1055" y="190" width="20" height="20" as="geometry"/>
                </mxCell>
                <mxCell id="258" value="5" style="text;html=1;align=center;verticalAlign=middle;resizable=0;points=[];autosize=1;strokeColor=none;fontColor=#FF3333;" vertex="1" parent="1">
                    <mxGeometry x="1205" y="140" width="20" height="20" as="geometry"/>
                </mxCell>
                <mxCell id="259" value="6" style="text;html=1;align=center;verticalAlign=middle;resizable=0;points=[];autosize=1;strokeColor=none;fontColor=#FF3333;" vertex="1" parent="1">
                    <mxGeometry x="1275" y="140" width="20" height="20" as="geometry"/>
                </mxCell>
                <mxCell id="260" value="2" style="text;html=1;align=center;verticalAlign=middle;resizable=0;points=[];autosize=1;strokeColor=none;fontColor=#FF3333;" vertex="1" parent="1">
                    <mxGeometry x="1235" y="90" width="20" height="20" as="geometry"/>
                </mxCell>
                <mxCell id="261" value="完全二叉树&lt;br&gt;[3 9 1 6 7 1 9 5]" style="text;html=1;strokeColor=none;fillColor=none;align=center;verticalAlign=middle;whiteSpace=wrap;rounded=0;" vertex="1" parent="1">
                    <mxGeometry x="1125" y="200" width="105" height="30" as="geometry"/>
                </mxCell>
                <mxCell id="262" value="9" style="ellipse;whiteSpace=wrap;html=1;aspect=fixed;fillColor=#66B2FF;" vertex="1" parent="1">
                    <mxGeometry x="940" y="260" width="30" height="30" as="geometry"/>
                </mxCell>
                <mxCell id="263" value="7" style="ellipse;whiteSpace=wrap;html=1;aspect=fixed;fillColor=#66B2FF;" vertex="1" parent="1">
                    <mxGeometry x="890" y="300" width="30" height="30" as="geometry"/>
                </mxCell>
                <mxCell id="264" value="6" style="ellipse;whiteSpace=wrap;html=1;aspect=fixed;fillColor=#66B2FF;" vertex="1" parent="1">
                    <mxGeometry x="850" y="350" width="30" height="30" as="geometry"/>
                </mxCell>
                <mxCell id="265" value="9" style="ellipse;whiteSpace=wrap;html=1;aspect=fixed;fillColor=#66B2FF;" vertex="1" parent="1">
                    <mxGeometry x="1000" y="300" width="30" height="30" as="geometry"/>
                </mxCell>
                <mxCell id="266" value="3" style="ellipse;whiteSpace=wrap;html=1;aspect=fixed;fillColor=#66B2FF;" vertex="1" parent="1">
                    <mxGeometry x="920" y="350" width="30" height="30" as="geometry"/>
                </mxCell>
                <mxCell id="267" value="1" style="ellipse;whiteSpace=wrap;html=1;aspect=fixed;fillColor=#66B2FF;" vertex="1" parent="1">
                    <mxGeometry x="970" y="350" width="30" height="30" as="geometry"/>
                </mxCell>
                <mxCell id="268" value="1" style="ellipse;whiteSpace=wrap;html=1;aspect=fixed;fillColor=#66B2FF;" vertex="1" parent="1">
                    <mxGeometry x="1040" y="350" width="30" height="30" as="geometry"/>
                </mxCell>
                <mxCell id="269" value="5" style="ellipse;whiteSpace=wrap;html=1;aspect=fixed;fillColor=#66B2FF;" vertex="1" parent="1">
                    <mxGeometry x="820" y="400" width="30" height="30" as="geometry"/>
                </mxCell>
                <mxCell id="270" value="" style="endArrow=none;html=1;exitX=1;exitY=0;exitDx=0;exitDy=0;entryX=0;entryY=1;entryDx=0;entryDy=0;" edge="1" source="263" target="262" parent="1">
                    <mxGeometry width="50" height="50" relative="1" as="geometry">
                        <mxPoint x="910" y="320" as="sourcePoint"/>
                        <mxPoint x="940" y="290" as="targetPoint"/>
                    </mxGeometry>
                </mxCell>
                <mxCell id="271" value="" style="endArrow=none;html=1;exitX=1;exitY=0;exitDx=0;exitDy=0;entryX=0;entryY=1;entryDx=0;entryDy=0;" edge="1" source="264" target="263" parent="1">
                    <mxGeometry width="50" height="50" relative="1" as="geometry">
                        <mxPoint x="925.6066017177982" y="314.3933982822018" as="sourcePoint"/>
                        <mxPoint x="954.3933982822018" y="295.6066017177982" as="targetPoint"/>
                    </mxGeometry>
                </mxCell>
                <mxCell id="272" value="" style="endArrow=none;html=1;exitX=1;exitY=0;exitDx=0;exitDy=0;entryX=0;entryY=1;entryDx=0;entryDy=0;" edge="1" source="269" target="264" parent="1">
                    <mxGeometry width="50" height="50" relative="1" as="geometry">
                        <mxPoint x="885.6066017177982" y="364.3933982822018" as="sourcePoint"/>
                        <mxPoint x="904.3933982822018" y="335.6066017177982" as="targetPoint"/>
                    </mxGeometry>
                </mxCell>
                <mxCell id="273" value="" style="endArrow=none;html=1;exitX=0;exitY=0;exitDx=0;exitDy=0;entryX=1;entryY=1;entryDx=0;entryDy=0;" edge="1" source="265" target="262" parent="1">
                    <mxGeometry width="50" height="50" relative="1" as="geometry">
                        <mxPoint x="895.6066017177982" y="374.3933982822018" as="sourcePoint"/>
                        <mxPoint x="914.3933982822018" y="345.6066017177982" as="targetPoint"/>
                    </mxGeometry>
                </mxCell>
                <mxCell id="274" value="" style="endArrow=none;html=1;entryX=1;entryY=1;entryDx=0;entryDy=0;" edge="1" target="265" parent="1">
                    <mxGeometry width="50" height="50" relative="1" as="geometry">
                        <mxPoint x="1047" y="348" as="sourcePoint"/>
                        <mxPoint x="924.3933982822018" y="355.6066017177982" as="targetPoint"/>
                    </mxGeometry>
                </mxCell>
                <mxCell id="275" value="" style="endArrow=none;html=1;exitX=1;exitY=1;exitDx=0;exitDy=0;entryX=0.5;entryY=0;entryDx=0;entryDy=0;" edge="1" source="263" target="266" parent="1">
                    <mxGeometry width="50" height="50" relative="1" as="geometry">
                        <mxPoint x="915.6066017177982" y="394.3933982822018" as="sourcePoint"/>
                        <mxPoint x="934.3933982822018" y="365.6066017177982" as="targetPoint"/>
                    </mxGeometry>
                </mxCell>
                <mxCell id="276" value="" style="endArrow=none;html=1;exitX=0.5;exitY=0;exitDx=0;exitDy=0;entryX=0;entryY=1;entryDx=0;entryDy=0;" edge="1" source="267" target="265" parent="1">
                    <mxGeometry width="50" height="50" relative="1" as="geometry">
                        <mxPoint x="925.6066017177982" y="404.3933982822018" as="sourcePoint"/>
                        <mxPoint x="944.3933982822018" y="375.6066017177982" as="targetPoint"/>
                    </mxGeometry>
                </mxCell>
                <mxCell id="277" value="0" style="text;html=1;align=center;verticalAlign=middle;resizable=0;points=[];autosize=1;strokeColor=none;fontColor=#FF3333;" vertex="1" parent="1">
                    <mxGeometry x="945" y="290" width="20" height="20" as="geometry"/>
                </mxCell>
                <mxCell id="278" value="1" style="text;html=1;align=center;verticalAlign=middle;resizable=0;points=[];autosize=1;strokeColor=none;fontColor=#FF3333;" vertex="1" parent="1">
                    <mxGeometry x="895" y="330" width="20" height="20" as="geometry"/>
                </mxCell>
                <mxCell id="279" value="4" style="text;html=1;align=center;verticalAlign=middle;resizable=0;points=[];autosize=1;strokeColor=none;fontColor=#FF3333;" vertex="1" parent="1">
                    <mxGeometry x="925" y="380" width="20" height="20" as="geometry"/>
                </mxCell>
                <mxCell id="280" value="3" style="text;html=1;align=center;verticalAlign=middle;resizable=0;points=[];autosize=1;strokeColor=none;fontColor=#FF3333;" vertex="1" parent="1">
                    <mxGeometry x="855" y="380" width="20" height="20" as="geometry"/>
                </mxCell>
                <mxCell id="281" value="7" style="text;html=1;align=center;verticalAlign=middle;resizable=0;points=[];autosize=1;strokeColor=none;fontColor=#FF3333;" vertex="1" parent="1">
                    <mxGeometry x="825" y="430" width="20" height="20" as="geometry"/>
                </mxCell>
                <mxCell id="282" value="5" style="text;html=1;align=center;verticalAlign=middle;resizable=0;points=[];autosize=1;strokeColor=none;fontColor=#FF3333;" vertex="1" parent="1">
                    <mxGeometry x="975" y="380" width="20" height="20" as="geometry"/>
                </mxCell>
                <mxCell id="283" value="6" style="text;html=1;align=center;verticalAlign=middle;resizable=0;points=[];autosize=1;strokeColor=none;fontColor=#FF3333;" vertex="1" parent="1">
                    <mxGeometry x="1045" y="380" width="20" height="20" as="geometry"/>
                </mxCell>
                <mxCell id="284" value="2" style="text;html=1;align=center;verticalAlign=middle;resizable=0;points=[];autosize=1;strokeColor=none;fontColor=#FF3333;" vertex="1" parent="1">
                    <mxGeometry x="1005" y="330" width="20" height="20" as="geometry"/>
                </mxCell>
                <mxCell id="285" value="大根堆&lt;br&gt;[9 7 9 6 3 1 1 5]" style="text;html=1;strokeColor=none;fillColor=none;align=center;verticalAlign=middle;whiteSpace=wrap;rounded=0;" vertex="1" parent="1">
                    <mxGeometry x="875" y="445" width="135" height="30" as="geometry"/>
                </mxCell>
                <mxCell id="286" value="" style="endArrow=classic;html=1;fontColor=#000000;" edge="1" parent="1">
                    <mxGeometry width="50" height="50" relative="1" as="geometry">
                        <mxPoint x="1045" y="230" as="sourcePoint"/>
                        <mxPoint x="1005" y="270" as="targetPoint"/>
                    </mxGeometry>
                </mxCell>
                <mxCell id="287" value="1" style="ellipse;whiteSpace=wrap;html=1;aspect=fixed;fillColor=#66B2FF;" vertex="1" parent="1">
                    <mxGeometry x="1375" y="280" width="30" height="30" as="geometry"/>
                </mxCell>
                <mxCell id="288" value="5" style="ellipse;whiteSpace=wrap;html=1;aspect=fixed;fillColor=#66B2FF;" vertex="1" parent="1">
                    <mxGeometry x="1325" y="320" width="30" height="30" as="geometry"/>
                </mxCell>
                <mxCell id="289" value="6" style="ellipse;whiteSpace=wrap;html=1;aspect=fixed;fillColor=#66B2FF;" vertex="1" parent="1">
                    <mxGeometry x="1286" y="370" width="30" height="30" as="geometry"/>
                </mxCell>
                <mxCell id="290" value="1" style="ellipse;whiteSpace=wrap;html=1;aspect=fixed;fillColor=#66B2FF;" vertex="1" parent="1">
                    <mxGeometry x="1435" y="320" width="30" height="30" as="geometry"/>
                </mxCell>
                <mxCell id="291" value="7" style="ellipse;whiteSpace=wrap;html=1;aspect=fixed;fillColor=#66B2FF;" vertex="1" parent="1">
                    <mxGeometry x="1355" y="370" width="30" height="30" as="geometry"/>
                </mxCell>
                <mxCell id="292" value="3" style="ellipse;whiteSpace=wrap;html=1;aspect=fixed;fillColor=#66B2FF;" vertex="1" parent="1">
                    <mxGeometry x="1405" y="370" width="30" height="30" as="geometry"/>
                </mxCell>
                <mxCell id="293" value="9" style="ellipse;whiteSpace=wrap;html=1;aspect=fixed;fillColor=#66B2FF;" vertex="1" parent="1">
                    <mxGeometry x="1475" y="370" width="30" height="30" as="geometry"/>
                </mxCell>
                <mxCell id="294" value="9" style="ellipse;whiteSpace=wrap;html=1;aspect=fixed;fillColor=#66B2FF;" vertex="1" parent="1">
                    <mxGeometry x="1255" y="420" width="30" height="30" as="geometry"/>
                </mxCell>
                <mxCell id="295" value="" style="endArrow=none;html=1;exitX=1;exitY=0;exitDx=0;exitDy=0;entryX=0;entryY=1;entryDx=0;entryDy=0;" edge="1" source="288" target="287" parent="1">
                    <mxGeometry width="50" height="50" relative="1" as="geometry">
                        <mxPoint x="1345" y="340" as="sourcePoint"/>
                        <mxPoint x="1375" y="310" as="targetPoint"/>
                    </mxGeometry>
                </mxCell>
                <mxCell id="296" value="" style="endArrow=none;html=1;exitX=1;exitY=0;exitDx=0;exitDy=0;entryX=0;entryY=1;entryDx=0;entryDy=0;" edge="1" source="289" target="288" parent="1">
                    <mxGeometry width="50" height="50" relative="1" as="geometry">
                        <mxPoint x="1360.6066017177982" y="334.3933982822018" as="sourcePoint"/>
                        <mxPoint x="1389.3933982822018" y="315.6066017177982" as="targetPoint"/>
                    </mxGeometry>
                </mxCell>
                <mxCell id="297" value="" style="endArrow=none;html=1;exitX=1;exitY=0;exitDx=0;exitDy=0;entryX=0;entryY=1;entryDx=0;entryDy=0;" edge="1" source="294" target="289" parent="1">
                    <mxGeometry width="50" height="50" relative="1" as="geometry">
                        <mxPoint x="1320.6066017177982" y="384.3933982822018" as="sourcePoint"/>
                        <mxPoint x="1339.3933982822018" y="355.6066017177982" as="targetPoint"/>
                    </mxGeometry>
                </mxCell>
                <mxCell id="298" value="" style="endArrow=none;html=1;exitX=0;exitY=0;exitDx=0;exitDy=0;entryX=1;entryY=1;entryDx=0;entryDy=0;" edge="1" source="290" target="287" parent="1">
                    <mxGeometry width="50" height="50" relative="1" as="geometry">
                        <mxPoint x="1330.6066017177982" y="394.3933982822018" as="sourcePoint"/>
                        <mxPoint x="1349.3933982822018" y="365.6066017177982" as="targetPoint"/>
                    </mxGeometry>
                </mxCell>
                <mxCell id="299" value="" style="endArrow=none;html=1;entryX=1;entryY=1;entryDx=0;entryDy=0;" edge="1" target="290" parent="1">
                    <mxGeometry width="50" height="50" relative="1" as="geometry">
                        <mxPoint x="1482" y="368" as="sourcePoint"/>
                        <mxPoint x="1359.3933982822018" y="375.6066017177982" as="targetPoint"/>
                    </mxGeometry>
                </mxCell>
                <mxCell id="300" value="" style="endArrow=none;html=1;exitX=1;exitY=1;exitDx=0;exitDy=0;entryX=0.5;entryY=0;entryDx=0;entryDy=0;" edge="1" source="288" target="291" parent="1">
                    <mxGeometry width="50" height="50" relative="1" as="geometry">
                        <mxPoint x="1350.6066017177982" y="414.3933982822018" as="sourcePoint"/>
                        <mxPoint x="1369.3933982822018" y="385.6066017177982" as="targetPoint"/>
                    </mxGeometry>
                </mxCell>
                <mxCell id="301" value="" style="endArrow=none;html=1;exitX=0.5;exitY=0;exitDx=0;exitDy=0;entryX=0;entryY=1;entryDx=0;entryDy=0;" edge="1" source="292" target="290" parent="1">
                    <mxGeometry width="50" height="50" relative="1" as="geometry">
                        <mxPoint x="1360.6066017177982" y="424.3933982822018" as="sourcePoint"/>
                        <mxPoint x="1379.3933982822018" y="395.6066017177982" as="targetPoint"/>
                    </mxGeometry>
                </mxCell>
                <mxCell id="302" value="0" style="text;html=1;align=center;verticalAlign=middle;resizable=0;points=[];autosize=1;strokeColor=none;fontColor=#FF3333;" vertex="1" parent="1">
                    <mxGeometry x="1380" y="310" width="20" height="20" as="geometry"/>
                </mxCell>
                <mxCell id="303" value="1" style="text;html=1;align=center;verticalAlign=middle;resizable=0;points=[];autosize=1;strokeColor=none;fontColor=#FF3333;" vertex="1" parent="1">
                    <mxGeometry x="1330" y="350" width="20" height="20" as="geometry"/>
                </mxCell>
                <mxCell id="304" value="4" style="text;html=1;align=center;verticalAlign=middle;resizable=0;points=[];autosize=1;strokeColor=none;fontColor=#FF3333;" vertex="1" parent="1">
                    <mxGeometry x="1360" y="400" width="20" height="20" as="geometry"/>
                </mxCell>
                <mxCell id="305" value="3" style="text;html=1;align=center;verticalAlign=middle;resizable=0;points=[];autosize=1;strokeColor=none;fontColor=#FF3333;" vertex="1" parent="1">
                    <mxGeometry x="1290" y="400" width="20" height="20" as="geometry"/>
                </mxCell>
                <mxCell id="306" value="7" style="text;html=1;align=center;verticalAlign=middle;resizable=0;points=[];autosize=1;strokeColor=none;fontColor=#FF3333;" vertex="1" parent="1">
                    <mxGeometry x="1260" y="450" width="20" height="20" as="geometry"/>
                </mxCell>
                <mxCell id="307" value="5" style="text;html=1;align=center;verticalAlign=middle;resizable=0;points=[];autosize=1;strokeColor=none;fontColor=#FF3333;" vertex="1" parent="1">
                    <mxGeometry x="1410" y="400" width="20" height="20" as="geometry"/>
                </mxCell>
                <mxCell id="308" value="6" style="text;html=1;align=center;verticalAlign=middle;resizable=0;points=[];autosize=1;strokeColor=none;fontColor=#FF3333;" vertex="1" parent="1">
                    <mxGeometry x="1480" y="400" width="20" height="20" as="geometry"/>
                </mxCell>
                <mxCell id="309" value="2" style="text;html=1;align=center;verticalAlign=middle;resizable=0;points=[];autosize=1;strokeColor=none;fontColor=#FF3333;" vertex="1" parent="1">
                    <mxGeometry x="1440" y="350" width="20" height="20" as="geometry"/>
                </mxCell>
                <mxCell id="310" value="" style="endArrow=classic;html=1;fontColor=#000000;" edge="1" parent="1">
                    <mxGeometry width="50" height="50" relative="1" as="geometry">
                        <mxPoint x="1305" y="220" as="sourcePoint"/>
                        <mxPoint x="1355" y="270" as="targetPoint"/>
                    </mxGeometry>
                </mxCell>
                <mxCell id="311" value="小根堆&lt;br&gt;[1 6 1 5 7 3 9 9]" style="text;html=1;strokeColor=none;fillColor=none;align=center;verticalAlign=middle;whiteSpace=wrap;rounded=0;" vertex="1" parent="1">
                    <mxGeometry x="1345" y="450" width="105" height="30" as="geometry"/>
                </mxCell>
                <mxCell id="312" value="自底向上构建" style="text;html=1;strokeColor=none;fillColor=none;align=center;verticalAlign=middle;whiteSpace=wrap;rounded=0;fontColor=#000000;" vertex="1" parent="1">
                    <mxGeometry x="1140" y="280" width="85" height="20" as="geometry"/>
                </mxCell>
            </root>
        </mxGraphModel>
    </diagram>
</mxfile>